<svg id="bfe710aa-a0c7-47a2-8802-13dc4a464f38" data-name="Layer 1" xmlns="http://www.w3.org/2000/svg" viewBox="0 0 136 136"><defs><style>.a1997e2b-7837-4d2f-87a6-ff9ad741cde9{fill:#fff;}</style></defs><path class="a1997e2b-7837-4d2f-87a6-ff9ad741cde9" d="M68,11.29543A56.70457,56.70457,0,1,1,11.29543,68,56.76862,56.76862,0,0,1,68,11.29543m0-9.77665A66.48122,66.48122,0,1,0,134.48122,68,66.48115,66.48115,0,0,0,68,1.51878Z"/><path class="a1997e2b-7837-4d2f-87a6-ff9ad741cde9" d="M56.65135,47.98794q1.97275,1.40277,3.90637,2.88239L85.87867,46.446V35.80532l-37.727,6.59208Q52.5161,45.049,56.65135,47.98794Z"/><path class="a1997e2b-7837-4d2f-87a6-ff9ad741cde9" d="M68,19.74975A48.25,48.25,0,1,0,116.25025,68,48.25022,48.25022,0,0,0,68,19.74975ZM90.62235,45.61729v60.22092A141.83916,141.83916,0,0,0,71.988,82.67261a137.44131,137.44131,0,0,0-38.0516-27.15073l20.16721-3.524A137.47519,137.47519,0,0,0,33.93639,40.06637l56.686-9.90458Z"/></svg>